<svg width="40pt" height="40pt" viewBox="0 0 40 40" xmlns="http://www.w3.org/2000/svg"><g fill="#3D6730"><path d="M15.5 7.3c4.54-.92 9.24-.4 13.84-.27.24 2 .32 4.01.38 6.02 2.87-1.45 6-2.22 9.22-2.3-3.06 2.82-8.86 3.78-9.12 8.71-.25 2.61-.21 5.24-.38 7.86-.7.01-2.1.02-2.8.02-.14-5.58.59-11.22-.19-16.76-3.77-1.24-7.95.06-11.71-1.41l.76-1.87z"/><path d="M8.87 12.4c5.07.06 10.16-.42 15.21.16.23 5.48.17 10.96.18 16.44-.1 1.48.15 3.17-.95 4.35-4.46.42-8.99.37-13.46.03-.17-.61-.53-1.84-.7-2.45-1.88 1.96-3.96 3.71-5.96 5.55 1.32-4.75 4.88-8.2 8.6-11.19-.01 1.7-.02 3.4-.04 5.1 3.01.04 6.01.15 9.02.15.03-4.93.09-9.86-.26-14.78-2.77-.15-5.55-.25-8.33-.31-.16 2.73-.37 5.46-.51 8.19l-2.95-.12c.08-3.71.06-7.41.15-11.12z"/></g></svg>
