<?xml version="1.0" encoding="UTF-8" ?>
<!DOCTYPE svg PUBLIC "-//W3C//DTD SVG 1.1//EN" "http://www.w3.org/Graphics/SVG/1.1/DTD/svg11.dtd">
<svg width="40pt" height="40pt" viewBox="0 0 40 40" version="1.1" xmlns="http://www.w3.org/2000/svg">
<g id="#404040ff">
<path fill="#3D6730" opacity="1.00" d=" M 20.17 4.68 C 24.99 4.79 29.49 9.00 29.08 13.98 C 29.16 18.53 25.68 21.95 22.27 24.44 C 22.22 28.20 22.21 31.98 21.59 35.71 C 20.44 35.55 18.86 35.98 18.12 34.77 C 17.62 31.37 17.87 27.90 17.81 24.46 C 15.24 23.67 12.90 22.36 10.55 21.09 C 10.74 20.38 11.10 18.95 11.28 18.23 C 14.04 19.10 16.72 20.74 19.69 20.57 C 24.08 19.82 26.37 14.43 24.53 10.56 C 23.19 8.81 21.11 7.89 19.30 6.73 C 19.52 6.22 19.95 5.19 20.17 4.68 Z" />
<path fill="#3D6730" opacity="1.00" d=" M 17.23 11.01 C 19.79 10.04 22.93 12.85 21.58 15.44 C 20.73 18.52 15.47 17.88 15.21 14.72 C 14.70 13.12 16.08 11.87 17.23 11.01 Z" />
</g>
</svg>
