<svg viewBox="0 0 827 827" xmlns="http://www.w3.org/2000/svg"><path d="M401.87 0h47.08c4.32.74 8.7 1.04 13.08 1.14C547.85 8.33 630.88 43.66 695.94 100c12.14 10.19 22.74 22.04 34.13 33.05 31.49 33.8 57.01 73.08 75.54 115.39 4.13 10.11 9.95 20.32 9 31.62-.85 13.8-10.69 26.45-23.81 30.77-10.82 3.79-23.34 1.7-32.45-5.2-6.93-4.76-11.3-12.08-16.48-18.5-4.55-5.75-9.17-11.47-14.36-16.66-3.41-3.58-6.2-7.74-10.06-10.88-3.15-2.52-6.17-5.21-8.98-8.1-39.88-35.69-89.64-60.53-142.51-69.48-15.86-2.49-31.87-4.6-47.97-4.02-19.91-.64-39.77 1.98-59.27 5.83-13.09 3.09-26.28 6.08-38.76 11.18-31.67 11.36-61.08 28.63-86.8 50.26-48.79 40.9-83.57 98.07-98.17 159.99 5.08-6.01 11.28-10.85 17.01-16.18 44.47-38.33 103.07-60.79 161.99-59.07 16.9-.49 33.72 2.06 50.23 5.47 39.33 9.02 76.46 27.7 106.83 54.31 6.67 5.34 12.29 11.8 18.45 17.69 15.18 15.94 28.3 33.87 38.75 53.25 4.57 9.49 9.84 18.67 13.54 28.55 10.25 26.08 16.74 53.72 18.22 81.73-.05 11.67.08 23.34-.06 35.01-1.64 23.38-6.25 46.59-14.16 68.68-3.73 10.16-12.35 18.4-22.67 21.66-8.86 2.86-18.85 1.96-27.05-2.44-11.56-6.07-19.43-18.76-19.05-31.9-.16-26.5-10.48-52.85-28.78-72.08-12.11-13.03-27.57-22.83-44.38-28.61-11.49-4.1-23.72-5.65-35.84-6.35-13.77.55-27.66 2.59-40.54 7.68-14.52 5.5-27.69 14.21-38.94 24.86-4.71 5.36-9.27 10.88-13.32 16.76-11.69 17.85-17.87 39.33-17.25 60.66.8 34 19.28 66.97 47.92 85.32 5.78 4.18 12.45 6.82 18.68 10.22 10.93 5.99 18.39 17.98 18.42 30.51.67 18.19-14.76 34.74-32.8 36.02h-16.16c-26.12-2.27-52.15-6.47-77.46-13.42-65.32-17.49-125.87-51.79-175.09-98.08-9.15-9.5-19.08-18.29-27.49-28.48-55.1-62.09-90.57-141.29-100.25-223.74-.91-8.42-1.89-16.83-1.89-25.31-1.49-11.27-.61-22.66-.87-33.99-.29-7.37 1.28-14.64 1.1-22.01 6.19-87.94 42.27-173.24 100.18-239.59 3.67-4.71 8.18-8.64 12.26-12.97 4.4-4.84 8.67-9.84 13.66-14.1 5.73-4.65 10.37-10.47 16.25-14.94 61.52-53.71 139.45-88.08 220.49-97.88 8.95-1.25 18.01-1.2 26.95-2.49m2.17 50.67c-51.34 2.92-101.99 17-147.63 40.68-16.51 9.12-32.9 18.65-47.82 30.25-10.54 7.66-20.65 15.9-30.19 24.75-4.07 4.65-9.34 8.09-13.19 12.94-3.76 4.52-8.44 8.19-12.15 12.77-16.9 19.54-32.31 40.49-44.88 63.1-4.22 7.86-9.07 15.43-12.31 23.79-18.5 39.19-29.67 81.79-33.35 124.96-1.05 5.27 0 10.68-.98 15.96-1.04 5.99-.34 12.09-.56 18.13-.41 6.7 1.53 13.27 1.02 19.98 4.26 57.73 21.56 114.76 51.97 164.15 10.84 18.56 23.98 35.68 37.95 51.97 4.01 3.68 6.89 8.37 10.94 12.01 5.99 5.67 11.35 12.03 17.92 17.07 21.72 19.98 46.21 36.85 72.06 51.04 25.37 13.76 52.55 24.07 80.41 31.5 5.99 1.84 12.27 2.51 18.21 4.53-5.35-6.25-11.26-12.05-15.64-19.05-18.57-26.37-29.42-58.73-27.82-91.14-.73-14.9 2.08-29.71 6.33-43.93 6.6-20.59 17.02-40.12 31.61-56.16 6.25-8.03 14.27-14.39 21.83-21.11 23.87-18.03 52.45-30.59 82.45-33.06 8.84-1.44 17.82-.58 26.73-.8 12.46 1.1 25.01 2.46 36.95 6.43 11.98 3.27 23.13 8.79 34.03 14.63 9.09 5.28 17.79 11.32 25.56 18.42 9.17 7.16 16.38 16.39 23.65 25.37 4.71 7.16 10.25 13.98 13.02 22.22-.34-5.02-.07-10.05-.15-15.07-2.23-33.69-11.27-67.29-28.46-96.49-9.79-16.93-22.01-32.47-35.96-46.15-11.16-10-22.98-19.37-35.91-27-24.78-14.75-52.96-23.69-81.64-26.38-18.84-2.43-37.92-.34-56.45 3.42-34.64 7.09-67.03 24.21-92.84 48.3-3.19 2.42-6.18 5.13-8.66 8.28-3.25 4.4-7.56 7.87-10.71 12.36-22.81 28.22-38.5 62.33-43.97 98.24-2.45 8.79-13.2 14.81-21.8 10.92-6.55-2.74-9.66-9.9-10.78-16.49-2.95-15.85-4.96-31.88-5.85-47.96.38-9.7-1.49-19.38-.42-29.08.74-6.32.22-12.69.55-19.03.93-6.64 1.15-13.34 2.01-19.99 5.24-39.73 17.07-78.69 35.46-114.32 11.92-24.22 27.23-46.72 44.57-67.37 9.57-11.74 20.98-21.77 31.46-32.68 13.07-11.76 26.81-22.87 41.64-32.38 10.09-6.76 20.42-13.23 31.36-18.52 31.65-16.55 66.04-27.84 101.31-33.35 13.64-1.83 27.32-3.87 41.12-3.32 10.64-.4 21.27.16 31.92-.04 43.31 2.51 86.25 13.57 125.13 32.93 17.5 8.52 34.47 18.21 50.05 29.92-9.62-12.28-19.76-24.16-31.04-34.94-9.31-9.76-19.54-18.54-30.15-26.85-14.69-12.05-30.75-22.28-47.12-31.87-46.37-26.31-98.72-41.94-151.85-46.15-6.03.25-11.92-1.51-17.96-1.03-10.32.38-20.73-.74-30.98.69z"/></svg>