<svg xmlns="http://www.w3.org/2000/svg" viewBox="0 0 128 128"><path d="M54.26.79c16.09-2.66 33 1.52 46.41 10.67 12.24 8.82 21.6 21.8 25.34 36.46 3.37 13.47 2.51 28.09-2.98 40.9-7.73 18.28-24.23 32.8-43.69 37.26a63.07 63.07 0 0 1-39.3-2.8c-17.67-6.79-31.54-22.26-37.2-40.19C-1.6 68.51-.88 52.32 5.3 38.36 13.91 18.64 32.84 3.76 54.26.79M26.2 14.82c-1.89 3.35-3.25 7.02-5.83 9.97 5.51-.55 10.51 2.07 14.36 5.8 6.32-3 14.72-6.72 21.04-2.03-3.04.37-6.42.02-9.04 1.96-5.34 3.3-11.21 6.6-14.27 12.35-3.04 5.88-3.18 13.03-.97 19.23 1.7 5.9 4.83 11.76 10.25 15.02 7.15 4.73 17.45 6.84 24.93 1.6 3.95-2.22 7.6-7.3 4.8-11.75a26.2 26.2 0 0 0-7.07-1.32c3.5-6.57 14.61-8.06 18.5-1.11 1.87-5.73 1.46-13.01-3.5-17.1-3.23-3.02-7.92-2.73-12.02-2.73-6.03.07-10.17 5.88-11.17 11.32-.83 4.24 1.29 8.17 2.75 11.99-8.32-1.68-11.33-11.49-9.63-18.88 1.1-5.22 5.08-9.09 8.94-12.48 4.5-2.62 9.97-2.45 14.96-3.5-1.5-2.86-3.18-5.86-2.75-9.22-.2-4.49 4.24-6.76 6.9-9.63 1.92-1.64 1.1-5.03-1.04-6.1-5.24-3.19-11.82-2.94-16.9-6.55C47.47 2.74 35.6 7.26 26.2 14.82m66.54 8c3.85 1.58 6.4 4.85 9.07 7.88-1.13-4.28-4.57-7.55-9.07-7.88m-.9 6.7c-.1 1.74-.2 3.5-.27 5.27-2.23.18-3.72-1.39-5.07-2.9 1.21 1.6 2.33 3.24 3.5 4.87-1.44.78-2.88 1.59-4.3 2.42 4.9 5.12 7.25 12.23 8.35 19.11-.6 4.85-2.1 9.56-2.57 14.44 3.52-1.59 7.35-2.2 11.2-2.2.6-2.22 3.08-4.97.99-7.08-3.41-4.5-7.92-8.53-9.11-14.31-1.37-5.14 1.44-10 2.02-15-.7-2.27-2.95-3.36-4.75-4.63M86.5 31.9c-.36-.74-.36-.74 0 0m-71.66 1.23a12.46 12.46 0 0 0-1.15 3.5c-1.09 4.16 4.38 6.3 2.54 10.57-3.03.59-5.98-.42-7.1-3.45 1.06 3.22.37 7.79 4.03 9.45 2.65 1.23 7 .57 7.57-2.82 1.18-4.54 2.57-9.46 1.44-14.12-1.03-3.34-4.46-3.16-7.33-3.13M109.52 42c-3.57 2.11-3.07 6.83-2.72 10.35 1.13 2.22 3.1 3.85 4.74 5.7 1.22.06 2.46.12 3.68.2 1.35-1.51 2.45-3.22 2.59-5.3l-3.7-1.3c-.95 5.02-5.85.7-5.14-2.49-.27-3.47 2.94-5.08 5.5-6.45-1.5-.74-3.38-2.17-4.95-.71M11.05 61.36c1.2 1.93 2.6 4.06 5.1 4.26 2.3.58 3.55-1.76 4.92-3.12-3.39.87-7.15 1.3-10.02-1.14m105.55 3.12c-.42-.76-.42-.76 0 0 2.12 2.15 3.5 4.86 4.6 7.64a46 46 0 0 0 .81-10.49c-1.66 1.2-3.25 2.76-5.41 2.85m-8.37 10.53c3.79 4.32 5.2 9.95 5.77 15.52a26.76 26.76 0 0 0-2.8-19.15l-2.97 3.63M8.8 79.97c1.11 1.83 2.3 3.62 3.52 5.4.42-1.25.83-2.49 1.26-3.73L8.8 79.97c-.46-.64-.46-.64 0 0m84.86 3.88c1.08 2.41 2.89 4.42 4.1 6.77-4.16.85-7.82-1.36-10.3-4.53-7.32-1.2-13.27 3.96-19.84 6.14-3.82 1.7-8.99 1.02-11.62 4.82a6.5 6.5 0 0 0-.38 8.45c3.15 4.47 8.84 7.78 14.38 6.07 1.02-2.2 1.68-4.7 3.47-6.44 3.17-1.73 7.22-1 10.22-3.14 1.62-3.57-3.63-3.97-5.51-5.82 4.3-1.35 9-2.19 13.29-.26.88-.74 1.76-1.48 2.65-2.2 1.6.34 3.17 1.06 4.83.88 3.24-2.38 2.92-7 2.08-10.46-1.16-3.27-6.1-3.74-7.37-.28m-72.72 4.31c-.8 3.66 2.15 8.07 6.16 7.47 2.57-2.33 5.52-4.23 9.19-3.28.62.82 1.33 1.58 2.1 2.28.15-.58.49-1.72.66-2.3-3.17-1.6-2.51-6.53-6.14-8.06-.4 4.43-4.76 5.15-8.41 5.27.9-1.65 1.87-3.27 2.9-4.85L25 82.67c-1.73 1.47-4.24 2.85-4.06 5.49m12.99 14.18c-1.8.83-3.6 1.73-5.38 2.6 1.88.4 3.79.48 5.7.26-.14-.95-.24-1.91-.32-2.86m55.56 7.13c2.45-1.6 3.79-4.08 2.73-7.03-1.46 2.1-2.39 4.5-2.73 7.03m-44.96.62c2.94 5.23 9.47 8.06 15.34 7.55-5.14-2.45-9.98-5.56-15.34-7.55z" fill="#6200ee"/></svg>