<svg xmlns="http://www.w3.org/2000/svg" width="448" height="448"><path d="M272.895 48.235h-97.791q-53.71 1.483-89.642 37.412T48.05 175.289v97.791q1.483 53.71 37.412 89.642 35.933 35.56 89.642 37.043h97.791q53.71-1.483 89.642-37.043 35.933-35.933 37.412-89.642v-97.791q-1.483-53.71-37.412-89.642t-89.642-37.412zM87.314 273.08v-97.791q1.11-37.412 25.561-62.231 24.816-24.447 62.231-25.561h1.483q-13.335 12.964-20.374 28.153-7.409 15.558-8.149 31.856-.74 28.153 16.668 52.6 17.78 24.816 50.377 41.489 22.224 11.482 34.448 26.3 11.854 15.188 11.112 31.117-.74 17.78-16.298 34.079-15.558 15.928-43.711 27.782h-25.561q-37.412-1.11-62.231-25.561-24.447-24.816-25.561-62.231zm273.372 0q-1.11 37.412-25.561 62.231-24.816 24.447-62.231 25.561h-1.483q13.335-12.964 20.374-28.523 7.409-15.188 8.149-31.486.74-28.153-16.668-52.6-17.78-24.816-50.377-41.489-22.224-11.482-34.448-26.3-11.854-15.188-11.112-31.117.74-18.151 16.298-34.079t43.711-27.782h25.561q37.412 1.11 62.231 25.561 24.447 24.816 25.561 62.231v97.791z"/></svg>